<?xml version="1.0" encoding="iso-8859-1"?>
<!-- Generator: Adobe Illustrator 19.0.0, SVG Export Plug-In . SVG Version: 6.00 Build 0)  -->
<svg version="1.1" id="Layer_1" xmlns="http://www.w3.org/2000/svg" xmlns:xlink="http://www.w3.org/1999/xlink" x="0px" y="0px"
	 viewBox="0 0 326.92 326.92" style="enable-background:new 0 0 326.92 326.92;" xml:space="preserve">
<g id="XMLID_34_">
	<g id="XMLID_45_">
		<path id="XMLID_47_" style="fill:#FF628B;" d="M242.837,234.153c-6.043-3.641-12.69-6.43-19.844-8.196
			c-4.824-1.206-17.048-1.949-25.018-2.188c-8.189,8.543-20.608,13.994-34.515,13.994s-24.326-5.451-32.515-13.994
			c-7.969,0.239-22.194,0.982-27.018,2.188c-7.154,1.766-13.802,4.554-19.844,8.196c-23.228,13.951-37.605,40.482-37.605,70.913
			v21.849h233.963v-21.849C280.442,274.635,266.064,248.104,242.837,234.153z"/>
		<path id="XMLID_46_" style="fill:#C85279;" d="M280.44,305.07v21.85H163.46v-89.16c13.91,0,24.33-5.45,32.51-13.99
			c7.97,0.24,22.2,0.98,27.02,2.19c7.16,1.76,13.8,4.55,19.85,8.19c17.23,10.35,29.59,27.63,34.82,48.28
			C279.48,289.62,280.44,297.21,280.44,305.07z"/>
	</g>
	<g id="XMLID_40_">
		<path id="XMLID_169_" style="fill:#E1A98C;" d="M268.84,127.26c-2.08-60.91-29.78-107.9-74.57-122.51c-0.01,0-0.01-0.01-0.02-0.01
			C184.73,1.64,174.44,0,163.46,0c-12.39,0-23.91,2.09-34.42,6.01C86.38,21.92,60.11,68,58.08,127.26
			c-9.36,7.59-15.35,19.19-15.35,32.19c0,22.9,18.56,41.46,41.46,41.46c30.86,0,55.59,17.08,78.54,17.01c0.24,0,0.49-0.01,0.73-0.02
			c0.36-0.01,0.71-0.02,1.07-0.03c0.53-0.02,1.07-0.05,1.61-0.09c1.07-0.07,2.16-0.18,3.24-0.32c0.55-0.07,1.09-0.15,1.64-0.23
			c0.72-0.12,1.45-0.24,2.19-0.37c0.73-0.14,1.47-0.29,2.21-0.44c0.37-0.08,0.74-0.16,1.11-0.24c0.37-0.09,0.74-0.17,1.12-0.26
			c0.37-0.09,0.74-0.18,1.12-0.27c0.75-0.19,1.5-0.38,2.25-0.58c0.19-0.05,0.38-0.1,0.57-0.15c1.53-0.41,3.07-0.86,4.63-1.33
			c0.18-0.06,0.35-0.11,0.53-0.16c1.93-0.59,3.88-1.21,5.86-1.84c0.24-0.08,0.48-0.16,0.72-0.23c0.4-0.14,0.8-0.27,1.21-0.39
			c0.15-0.06,0.3-0.11,0.45-0.15c0.4-0.13,0.8-0.26,1.2-0.39s0.81-0.27,1.21-0.39c1.07-0.35,2.16-0.7,3.26-1.05
			c0.41-0.14,0.82-0.27,1.24-0.4c0.95-0.3,1.91-0.61,2.87-0.9c0.72-0.23,1.44-0.45,2.17-0.66c1.7-0.52,3.41-1.01,5.15-1.49
			c0.44-0.12,0.87-0.24,1.31-0.35c0.96-0.26,1.93-0.51,2.9-0.76c0.8-0.19,1.6-0.39,2.4-0.57c0.45-0.1,0.9-0.21,1.35-0.3
			c0.07-0.02,0.15-0.04,0.23-0.05c0.44-0.1,0.89-0.2,1.34-0.29c0.48-0.1,0.96-0.2,1.44-0.29c0.42-0.09,0.84-0.17,1.26-0.24
			c2.23-0.42,4.49-0.77,6.79-1.05c0.38-0.05,0.77-0.1,1.16-0.14c0.7-0.08,1.4-0.15,2.1-0.21c0.37-0.03,0.73-0.06,1.1-0.09
			c2.38-0.19,4.8-0.29,7.26-0.29c21.8,0,41.46-18.56,41.46-41.46C284.19,146.45,278.2,134.85,268.84,127.26z"/>
		<path id="XMLID_197_" style="fill:#D2987B;" d="M268.84,127.26c-2.08-60.91-29.78-107.9-74.57-122.51c-0.01,0-0.01-0.01-0.02-0.01
			C184.73,1.64,174.44,0,163.46,0v206.86v11.04c0.36-0.01,0.71-0.02,1.07-0.03c0.53-0.02,1.07-0.05,1.61-0.09
			c1.07-0.08,2.16-0.19,3.24-0.32c0.55-0.07,1.09-0.15,1.64-0.23c0.72-0.12,1.45-0.24,2.19-0.37c0.73-0.14,1.47-0.29,2.21-0.44
			c0.37-0.08,0.74-0.16,1.11-0.24c0.37-0.09,0.74-0.17,1.12-0.26c0.37-0.09,0.74-0.18,1.12-0.27c0.75-0.19,1.5-0.38,2.25-0.58
			c0.19-0.05,0.38-0.1,0.57-0.15c1.53-0.42,3.07-0.87,4.63-1.33c0.18-0.06,0.35-0.11,0.53-0.16c1.93-0.59,3.88-1.21,5.86-1.84
			c0.24-0.08,0.48-0.16,0.72-0.23c0.4-0.14,0.8-0.27,1.21-0.39c0.15-0.06,0.3-0.11,0.45-0.15c0.4-0.13,0.8-0.26,1.2-0.39
			s0.81-0.27,1.21-0.39c1.08-0.36,2.17-0.71,3.26-1.05c0.41-0.14,0.82-0.27,1.24-0.4c0.95-0.3,1.91-0.61,2.87-0.9
			c0.72-0.23,1.44-0.45,2.17-0.66c1.7-0.52,3.41-1.01,5.15-1.49c0.44-0.12,0.87-0.24,1.31-0.35c0.96-0.26,1.93-0.51,2.9-0.76
			c0.8-0.19,1.6-0.39,2.4-0.57c0.45-0.1,0.9-0.21,1.35-0.3c0.07-0.02,0.15-0.04,0.23-0.05c0.44-0.1,0.89-0.2,1.34-0.29
			c0.48-0.1,0.96-0.2,1.44-0.29c0.42-0.09,0.84-0.17,1.26-0.24c2.23-0.42,4.49-0.77,6.79-1.05c0.38-0.05,0.77-0.1,1.16-0.14
			c0.7-0.08,1.4-0.15,2.1-0.21c0.37-0.03,0.73-0.06,1.1-0.09c2.38-0.19,4.8-0.29,7.26-0.29c21.8,0,41.46-18.56,41.46-41.46
			C284.19,146.45,278.2,134.85,268.84,127.26z"/>
	</g>
	<g id="XMLID_39_">
		<path id="XMLID_221_" style="fill:#F3D8B6;" d="M188.749,168.919H164.75h-1.121h-0.338h-1.121h-23.998
			c0,42.803-19.646,58.804-28.776,64.673l8.927,41.075c14.356,18.412,36.688,25.952,43.848,28.866h2.581
			c7.16-2.914,29.492-10.454,43.848-28.866l8.927-41.075C208.395,227.723,188.749,211.722,188.749,168.919z"/>
		<path id="XMLID_222_" style="fill:#EEC8A2;" d="M217.525,233.592c-9.13-5.869-28.776-21.87-28.776-64.673H164.75h-1.121h-0.169
			v134.614h1.29c7.16-2.914,29.492-10.454,43.848-28.866L217.525,233.592z"/>
	</g>
	<g id="XMLID_38_">
		<path id="XMLID_223_" style="fill:#F3DBC4;" d="M143.938,74.755c-1.601-2.747-3.074-5.376-4.444-7.916
			c-8.147,18.49-27.525,41.72-40.005,44.833c1.005,21.124,4.398,39.916,8.316,47.149c9.042,16.694,29.221,38.957,55.657,38.957
			c26.431,0,46.607-22.262,55.652-38.957c3.924-7.244,7.322-26.082,8.322-47.246C213.542,110.499,161.277,104.514,143.938,74.755z"
			/>
		<path id="XMLID_224_" style="fill:#EDCEAE;" d="M163.46,93.593v104.186c0,0,0.001,0,0.002,0c26.431,0,46.607-22.262,55.652-38.957
			c3.924-7.245,7.322-26.083,8.322-47.246C217.181,110.78,186.047,107.309,163.46,93.593z"/>
	</g>
	<g id="XMLID_35_">
		<path id="XMLID_37_" style="fill:#FFEB99;" d="M112.916,249.793l5.406,25.682c14.356,18.412,36.688,25.952,43.848,28.866h2.581
			c7.16-2.914,29.492-10.454,43.848-28.866l5.424-25.683L112.916,249.793L112.916,249.793z"/>
		<path id="XMLID_36_" style="fill:#FFE477;" d="M163.46,249.793v54.549h1.29c7.16-2.914,29.492-10.454,43.848-28.866l5.424-25.683
			L163.46,249.793L163.46,249.793z"/>
	</g>
</g>
<g>
</g>
<g>
</g>
<g>
</g>
<g>
</g>
<g>
</g>
<g>
</g>
<g>
</g>
<g>
</g>
<g>
</g>
<g>
</g>
<g>
</g>
<g>
</g>
<g>
</g>
<g>
</g>
<g>
</g>
</svg>
