<?xml version="1.0" encoding="iso-8859-1"?>
<!-- Generator: Adobe Illustrator 19.0.0, SVG Export Plug-In . SVG Version: 6.00 Build 0)  -->
<svg version="1.1" id="Layer_1" xmlns="http://www.w3.org/2000/svg" xmlns:xlink="http://www.w3.org/1999/xlink" x="0px" y="0px"
	 viewBox="0 0 496.2 496.2" style="enable-background:new 0 0 496.2 496.2;" xml:space="preserve">
<path style="fill:#48A1AF;" d="M248.1,0C111.1,0,0,111.1,0,248.1s111.1,248.1,248.1,248.1s248.1-111.1,248.1-248.1S385.1,0,248.1,0z
	"/>
<path style="fill:#1D1D1E;" d="M394.8,382.8c-7.3-27.3-69.9-49.3-147.1-49.3s-139.1,22.1-146.4,49.3c-3.3,12.2-7,35.2-10.1,57.5
	c42.7,34.9,97.4,55.9,156.9,55.9s114.1-21,156.9-55.9C401.8,417.9,398.1,394.9,394.8,382.8z"/>
<polygon style="fill:#D4D6D8;" points="247.9,317 208.3,322.3 210.2,335.4 247.8,363.5 286,335.4 287.9,322.3 "/>
<path style="fill:#E2A379;" d="M287,282.1h-77.8c12.1,36.6,1,53.3,1,53.3l26.9,12.9h22l26.9-12.9C286,335.4,274.9,318.7,287,282.1z"
	/>
<path style="fill:#F4B382;" d="M248.1,61.6c-44,0-79.8,21.2-79.8,113.6c0,31.3,5.6,55.8,14,74.7c18.4,41.6,50.3,56.1,65.8,56.1
	s47.3-14.5,65.8-56.1c8.4-18.9,14-43.4,14-74.7C327.9,82.8,292.1,61.6,248.1,61.6z"/>
<g>
	<path style="fill:#3F1C0A;" d="M296.5,70.7c-17.9-11.6-96.2,30-72,34.4c51.8,9.4,92.9,43.1,96.8,66.2c1.4,8,10.5,8.3,10.5,8.3
		C331.9,123.2,324.6,88.9,296.5,70.7z"/>
	<ellipse style="fill:#3F1C0A;" cx="248.1" cy="66.1" rx="42" ry="28.7"/>
</g>
<path style="fill:#4C230C;" d="M309.1,72.6c-8.5-14-24.5-18.5-32.5-18.5c-98,0-111.2,33.1-111.2,125.5c0,0,127.4-33.1,148.8-73.5
	C318.6,97.6,316.5,84.7,309.1,72.6z"/>
<path style="fill:#E2A379;" d="M247.9,317l-37.7,18.4c0,0,16.8,28.1,37.6,28.1s38.2-28.1,38.2-28.1L247.9,317z"/>
<path style="fill:#E6E7E8;" d="M304.2,336.5l-16.4-14.2l-39.7,19.2l-39.8-19.2l-16.2,14.1l-1.6,1.4c0,0,23.9,117.9,45.1,158
	c4.2,0.2,8.3,0.3,12.6,0.3c4.2,0,8.4-0.1,12.5-0.3c21.3-40.2,45.1-158,45.1-158L304.2,336.5z"/>
<g>
	<path style="fill:#272728;" d="M190.4,337.8l1.6-1.4c-62.3,6.9-21.7,156.2,43.5,159.5C214.3,455.7,190.4,337.8,190.4,337.8z"/>
	<path style="fill:#272728;" d="M304.2,336.5l1.5,1.3c0,0-23.9,117.9-45.1,158C325.8,492.6,366.4,343.4,304.2,336.5z"/>
</g>
<polygon style="fill:#3C3C3F;" points="293.4,327.1 248.1,345.7 202.8,327.1 199.5,329.9 248.1,350.1 296.7,329.9 "/>
<g>
	<circle style="fill:#9B9B9A;" cx="248.1" cy="378.1" r="4.5"/>
	<circle style="fill:#9B9B9A;" cx="248.1" cy="409.1" r="4.5"/>
	<circle style="fill:#9B9B9A;" cx="248.1" cy="440.1" r="4.5"/>
	<circle style="fill:#9B9B9A;" cx="248.1" cy="471.1" r="4.5"/>
</g>
<g>
	<polygon style="fill:#1D1D1E;" points="210.6,327.7 210.6,361.9 241.7,351.1 241.7,338.4 	"/>
	<polygon style="fill:#1D1D1E;" points="254.5,338.4 254.5,351.1 285.6,361.9 285.6,327.7 	"/>
	<rect x="238.5" y="336.3" style="fill:#1D1D1E;" width="19.3" height="17.2"/>
</g>
<g>
	<path style="fill:#F4B382;" d="M169.8,178c-7.6,1.3-13.4,4.6-9.1,29.7c4.3,25.2,9.6,26.3,17.3,25L169.8,178z"/>
	<path style="fill:#F4B382;" d="M326.5,178l-8.1,54.8c7.6,1.3,13,0.1,17.3-25C339.9,182.6,334.1,179.3,326.5,178z"/>
</g>
<path style="fill:#4C230C;" d="M174.8,183.1c-0.4-2.7-0.5-5.2-0.4-7.1c0.1-2.9,0.5-4.7,0.5-4.7l-9.4,3.5c0,1.4,0,2.9,0,4.3
	c0,0,1-0.3,2.8-0.9c-0.1,0-0.2,0.1-0.3,0.1c1.3,2.2,2.9,5.6,4.5,10.5C172.4,188.8,176.1,191.5,174.8,183.1z"/>
<path style="fill:#3F1C0A;" d="M330.7,174.8l-9.3-3.5c0,0,0.4,1.8,0.5,4.7c0.1,2,0,4.4-0.4,7.1c-1.3,8.4,2.3,5.7,2.3,5.7
	c1.5-5,3.2-8.3,4.4-10.5c1.6,0.6,2.5,0.8,2.5,0.8C330.8,177.6,330.8,176.2,330.7,174.8z"/>
<path style="fill:#CC785E;" d="M258.5,257.8c-3-0.4-10.4,2.5-10.4,2.5s-7.6-2.9-10.6-2.5c-4.8,0.7-16.1,4.6-16.1,6
	c0,0,14.2,9.6,26.7,9.6c12.5,0,26.7-9.6,26.7-9.6S263.4,258.5,258.5,257.8z"/>
<path style="fill:#C16952;" d="M254.2,264.4c-2-0.1-4.5,1.7-6.1,1.7c-1.9,0-4.8-1.8-7-1.6c-13.1,0.8-19.6-0.7-19.6-0.7
	s14.2,13.5,26.7,13.5c12.5,0,26.7-13.5,26.7-13.5S267.9,265.2,254.2,264.4z"/>
<g>
</g>
<g>
</g>
<g>
</g>
<g>
</g>
<g>
</g>
<g>
</g>
<g>
</g>
<g>
</g>
<g>
</g>
<g>
</g>
<g>
</g>
<g>
</g>
<g>
</g>
<g>
</g>
<g>
</g>
</svg>
