<?xml version="1.0" encoding="iso-8859-1"?>
<!-- Uploaded to: SVG Repo, www.svgrepo.com, Generator: SVG Repo Mixer Tools -->
<!DOCTYPE svg PUBLIC "-//W3C//DTD SVG 1.1//EN" "http://www.w3.org/Graphics/SVG/1.1/DTD/svg11.dtd">
<svg fill="#000000" height="800px" width="800px" version="1.1" id="Capa_1" xmlns="http://www.w3.org/2000/svg" xmlns:xlink="http://www.w3.org/1999/xlink" 
	 viewBox="0 0 408.156 408.156" xml:space="preserve">
<path d="M324.697,226.055h-4.543l-73.376-59.412c4.488-7.211,7.09-15.713,7.09-24.814c0-23.659-17.535-43.293-40.291-46.605V50.711
	h46.111c4.411,0,8-3.589,8-8V8c0-4.411-3.589-8-8-8H148.467c-4.411,0-8,3.589-8,8v34.711c0,4.411,3.589,8,8,8h46.111v53.513
	c0,5.247,4.253,9.5,9.5,9.5c0.457,0,0.903-0.043,1.343-0.106c0.44,0.063,0.886,0.106,1.343,0.106
	c15.497,0,28.105,12.607,28.105,28.104c0,4.57-1.104,8.885-3.048,12.704l-10.969-8.882c-8.114-6.569-19.288-10.861-25.958-5.635
	l-4.956,3.881c-3.262,2.553-3.836,7.267-1.283,10.528c2.554,3.262,7.267,3.837,10.529,1.282l3.775-2.955
	c1.515,0.329,4.771,1.574,8.454,4.557l10.273,8.318c-4.328,2.723-9.442,4.306-14.923,4.306c-8.958,0-17.459-4.331-22.741-11.586
	c-3.087-4.241-9.029-5.178-13.272-2.088c-4.241,3.088-5.176,9.029-2.088,13.271c8.845,12.15,23.089,19.402,38.101,19.402
	c11.469,0,21.989-4.124,30.167-10.962l59.385,48.084H111.999l50.711-40.777c3.228-2.596,3.741-7.316,1.145-10.545
	c-2.596-3.228-7.316-3.742-10.544-1.145l-65.248,52.467h-4.604c-6.065,0-11,4.934-11,11v160.101c0,6.066,4.935,11,11,11h241.238
	c6.065,0,11-4.934,11-11V237.055C335.697,230.989,330.763,226.055,324.697,226.055z"/>
</svg>