<?xml version="1.0" encoding="iso-8859-1"?>
<!-- Generator: Adobe Illustrator 19.0.0, SVG Export Plug-In . SVG Version: 6.00 Build 0)  -->
<svg version="1.1" id="Layer_1" xmlns="http://www.w3.org/2000/svg" xmlns:xlink="http://www.w3.org/1999/xlink" x="0px" y="0px"
	 viewBox="0 0 227.656 227.656" style="enable-background:new 0 0 227.656 227.656;" xml:space="preserve">
<g >
	<path  style="fill:#0071BC;opacity:0.06" d="M172.52,4.759c1.467,0.321,2.704,1.375,2.613,3.392c-0.504,10.084-1.054,20.213-3.575,30.022
		c0.321,2.75-1.375,5.958-4.538,5.546c-22.551-2.979-30.755,17.326-33.689,40.197c10.725,0.642,21.359,1.467,31.718,2.383
		c1.925,0.183,2.979,1.513,3.208,2.979c0.55,0.367,1.054,0.917,1.283,1.742c1.833,5.959,1.879,12.65,2.017,18.884
		c0.092,4.904,0.688,10.45-2.613,14.346c0.413,2.292-0.825,4.95-3.896,5.042c-11,0.137-22.138,0.321-33.322,0.413
		c0,1.1,0,2.2-0.046,3.208c-0.779,29.93,0.504,59.768,0.183,89.652c-0.046,2.338-1.925,3.208-3.621,2.888
		c-0.229,0.137-0.458,0.321-0.733,0.412c-5.638,1.788-12.009,1.513-17.875,1.696c-5.821,0.137-11.55,0.275-17.326-0.733
		c-1.421,0.458-3.163,0-3.483-1.879c-5.179-29.609-4.308-60.868-4.171-90.844c0-1.879,0-3.758,0-5.638
		c-9.121-0.596-18.196-1.513-27.134-2.796c-1.375-0.229-2.063-1.146-2.154-2.2c-3.3-2.2-2.521-7.975-2.567-11.596
		c-0.138-7.792-1.008-16.821,1.237-24.338c0.229-0.779,0.779-1.283,1.467-1.65c0.412-0.458,1.008-0.779,1.833-0.871
		c9.121-1.1,18.517-1.742,28.005-2.063c0.458-8.617,1.238-17.234,2.567-25.667c6.279-40.243,40.793-64.673,81.54-55.277
		C171.145,2.421,172.107,3.521,172.52,4.759z"/>
</g>
<g>
</g>
<g>
</g>
<g>
</g>
<g>
</g>
<g>
</g>
<g>
</g>
<g>
</g>
<g>
</g>
<g>
</g>
<g>
</g>
<g>
</g>
<g>
</g>
<g>
</g>
<g>
</g>
<g>
</g>
</svg>
