<?xml version="1.0" encoding="iso-8859-1"?>
<!-- Generator: Adobe Illustrator 16.0.0, SVG Export Plug-In . SVG Version: 6.00 Build 0)  -->
<!DOCTYPE svg PUBLIC "-//W3C//DTD SVG 1.1//EN" "http://www.w3.org/Graphics/SVG/1.1/DTD/svg11.dtd">
<svg version="1.1" id="Capa_1" xmlns="http://www.w3.org/2000/svg" xmlns:xlink="http://www.w3.org/1999/xlink" x="0px" y="0px"
	 width="440px" height="440px" viewBox="0 0 440 440" style="enable-background:new 0 0 440 440;" xml:space="preserve">
<g>
	<path d="M398.781,400.842c-0.585-3.45-1.193-6.896-1.823-10.347c-7.226-39.39-19.038-102.017-64.124-135.877
		c3.326-22.054,5.029-56.337,5.029-107.331C337.863,65.882,285.074,0,220,0c-44.375,0-72.592,31.445-72.592,31.445
		c-27.487,27.001-45.271,68.793-45.271,116.003c0,50.848,1.779,85.142,5.019,107.114c-45.29,33.524-56.883,96.658-64.115,136.072
		c-0.628,3.442-1.236,6.89-1.821,10.334c-3.093,18.202,9.156,35.461,27.355,38.554c1.896,0.322,3.777,0.478,5.638,0.478
		l116.984-0.03l0.003-0.023l174.585-0.078c1.859,0,3.743-0.153,5.636-0.479C389.622,436.3,401.872,419.044,398.781,400.842z
		 M220.034,324.404l-62.152-31.666l32.238-50.824c8.74,4.458,20.255,6.986,29.88,6.986c9.664,0,20.979-2.578,29.75-7.073
		l32.157,50.924L220.034,324.404z M220,226.9c-59.158,0-84.628-80.045-79.546-105.039c65.035-56.563,122.614-52.656,122.614-52.656
		s10.323,32.059,36.873,70.74C295.275,178.071,256.647,226.9,220,226.9z"/>
</g>
<g>
</g>
<g>
</g>
<g>
</g>
<g>
</g>
<g>
</g>
<g>
</g>
<g>
</g>
<g>
</g>
<g>
</g>
<g>
</g>
<g>
</g>
<g>
</g>
<g>
</g>
<g>
</g>
<g>
</g>
</svg>
