<?xml version="1.0" encoding="utf-8"?>

<!-- Uploaded to: SVG Repo, www.svgrepo.com, Generator: SVG Repo Mixer Tools -->
<svg fill="#000000" height="800px" width="800px" version="1.1" id="Icons" xmlns="http://www.w3.org/2000/svg" xmlns:xlink="http://www.w3.org/1999/xlink" 
	 viewBox="0 0 32 32" xml:space="preserve">
<g>
	<path d="M16,32C7.2,32,0,24.8,0,16S7.2,0,16,0c4.9,0,9.5,2.2,12.5,6c0.2,0.2,0.3,0.5,0.2,0.8c-0.1,0.3-0.3,0.5-0.5,0.7l-6.7,3.3
		c-0.4,0.2-0.8,0.1-1.1-0.1c-1.5-1.3-2.8-1.8-4.3-1.8c-3.9,0-7.1,3.2-7.1,7.1s3.2,7.1,7.1,7.1c2,0,3.9-1.1,5.3-3.1H16
		c-0.6,0-1-0.4-1-1v-5c0-0.6,0.4-1,1-1h15c0.5,0,0.9,0.4,1,0.8c0.1,0.6,0.1,1,0,1.5c0,0.2,0,0.4,0,0.7C32,24.8,24.8,32,16,32z"/>
</g>
</svg>