<?xml version="1.0" encoding="iso-8859-1"?>
<!-- Generator: Adobe Illustrator 17.1.0, SVG Export Plug-In . SVG Version: 6.00 Build 0)  -->
<!DOCTYPE svg PUBLIC "-//W3C//DTD SVG 1.1//EN" "http://www.w3.org/Graphics/SVG/1.1/DTD/svg11.dtd">
<svg version="1.1" id="Capa_1" xmlns="http://www.w3.org/2000/svg" xmlns:xlink="http://www.w3.org/1999/xlink" x="0px" y="0px"
	 viewBox="0 0 478.61 478.61" style="enable-background:new 0 0 478.61 478.61;" xml:space="preserve">
<g>
	<path d="M216.533,116.504c6.628-3.758,14.279-5.911,22.427-5.911c8.232,0,15.955,2.199,22.63,6.028
		c0.701,0.402,1.761-0.449,1.545-1.279c-2.813-10.791-12.625-18.756-24.297-18.756c-11.58,0-21.325,7.84-24.225,18.501
		C214.351,116.054,215.67,116.993,216.533,116.504z"/>
	<path d="M238.972,205.533c24.448,0,44.338-19.89,44.338-44.338c0-24.447-19.89-44.337-44.338-44.337
		c-24.447,0-44.337,19.89-44.337,44.337C194.635,185.643,214.524,205.533,238.972,205.533z"/>
	<path d="M478.071,346.809c-2.448-10.092-12.642-18.173-23.208-18.396l-70.29-1.483c-3.202-0.067-7.175-0.133-11.321-0.191
		c0.358-0.293,0.704-0.606,1.035-0.937c2.667-2.667,4.135-6.256,4.132-10.104c-0.003-4.041-1.602-7.859-4.502-10.75l-87.821-87.541
		c-2.869-2.86-6.8-4.5-10.785-4.5c-0.03,0-0.059-0.052-0.089-0.051c-0.571-0.051-1.146-0.145-1.729-0.145h-69.039
		c-0.794,0-1.574,0.118-2.345,0.212c-3.666,0.245-7.203,1.85-9.836,4.468c-0.205,0.188-0.397,0.404-0.592,0.604l-86.933,86.941
		c-5.848,5.849-6.007,15.209-0.354,20.863c0.331,0.331,0.676,0.644,1.034,0.938c-4.17,0.058-8.17,0.125-11.389,0.193l-70.29,1.484
		c-10.567,0.224-20.761,8.304-23.208,18.396c-1.255,5.174-0.305,10.111,2.676,13.901c3.125,3.972,8.189,6.153,13.915,5.926
		l67.626-2.739c1.386-0.056,2.966-0.085,4.694-0.085c7.982,0,17.966,0.601,24.279,1.461l111.403,15.178
		c0.913,0.125,1.82,0.188,2.697,0.188c0.097,0,0.188-0.013,0.285-0.014c3.306,0.909,7.016,1.401,10.858,1.401
		c3.88,0,7.624-0.503,10.955-1.429c0.285,0.013,0.563,0.042,0.854,0.042c0.878,0,1.785-0.063,2.697-0.188l111.403-15.178
		c6.313-0.86,16.297-1.461,24.279-1.461c1.728,0,3.308,0.029,4.694,0.085l67.625,2.739c0.283,0.011,0.563,0.017,0.84,0.017
		c0,0,0.001,0,0.001,0c5.339,0,10.104-2.166,13.074-5.942C478.375,356.919,479.326,351.982,478.071,346.809z M208.183,220.709
		h61.579c7.358,0,12.333,5.938,11.055,13.502l-8.334,49.181c-0.223,1.321-0.363,2.78-0.434,4.317h-66.146
		c-0.069-1.585-0.211-3.086-0.44-4.442l-8.334-49.056C195.85,226.648,200.824,220.709,208.183,220.709z M124.122,326.709
		c-0.038,0-0.079,0-0.117,0c0.431,0,0.849-0.79,1.247-1.188l66.397-66.434l4.829,27.354c1.272,7.215-0.076,18.997-2.944,25.738
		l-6.031,14.24L124.122,326.709z M278.191,352.349l-27.154,13.583c-6.636,3.319-17.494,3.319-24.13,0l-27.154-13.583
		c-6.636-3.319-9.707-11.817-6.826-18.884l8.462-20.755h75.141l8.486,20.787C287.898,340.563,284.827,349.03,278.191,352.349z
		 M354.488,326.709l-64.048-0.295l-6.03-14.206c-2.869-6.741-4.217-18.551-2.944-25.766l4.939-28.007l67.022,67.092
		c0.398,0.397,0.816,1.183,1.247,1.183C354.614,326.709,354.548,326.709,354.488,326.709z"/>
</g>
<g>
</g>
<g>
</g>
<g>
</g>
<g>
</g>
<g>
</g>
<g>
</g>
<g>
</g>
<g>
</g>
<g>
</g>
<g>
</g>
<g>
</g>
<g>
</g>
<g>
</g>
<g>
</g>
<g>
</g>
</svg>
