<?xml version="1.0" encoding="UTF-8" standalone="no"?> <svg width="24" height="24" viewBox="0 0 24 24" fill="none" xmlns="http://www.w3.org/2000/svg">
<path fill-rule="evenodd" clip-rule="evenodd" d="M8.93415 4.49101C8.41099 2.50299 5.58901 2.503 5.06585 4.49101L1.03293 19.8161C0.892374 20.3502 1.21141 20.8971 1.74551 21.0377C2.27961 21.1783 2.82652 20.8592 2.96708 20.3251L4.34984 15.0706H9.65017L11.0329 20.3251C11.1735 20.8592 11.7204 21.1783 12.2545 21.0377C12.7886 20.8971 13.1076 20.3502 12.9671 19.8161L8.93415 4.49101ZM4.87615 13.0706H9.12385L7 5L4.87615 13.0706Z" fill="#293644"/>
<path fill-rule="evenodd" clip-rule="evenodd" d="M15.4028 10.2685C14.9598 10.5983 14.8681 11.2248 15.1979 11.6678C15.5269 12.1097 16.151 12.2021 16.5938 11.8753L16.7612 11.7652C16.8849 11.6888 17.0686 11.5841 17.297 11.4789C17.7624 11.2646 18.3653 11.0706 19 11.0706C19.6585 11.0706 20.2095 11.2504 20.5666 11.4885C20.9307 11.7312 21 11.9567 21 12.0706V13.0706H18C15.7909 13.0706 14 14.8615 14 17.0706C14 19.2798 15.7909 21.0706 18 21.0706C18.9822 21.0706 20.0891 20.8997 21.0266 20.3007C21.1305 20.7421 21.5269 21.0706 22 21.0706C22.5523 21.0706 23 20.6229 23 20.0706V12.0706C23 11.08 22.3977 10.3055 21.676 9.82436C20.9474 9.33858 19.9983 9.07062 19 9.07062C17.9779 9.07062 17.0808 9.37663 16.4604 9.6623C16.1459 9.80715 15.8903 9.95242 15.7103 10.0635C15.6201 10.1193 15.548 10.1669 15.4963 10.2024L15.4028 10.2685ZM21 16.0706V15.0706H18C16.8954 15.0706 16 15.9661 16 17.0706C16 18.1752 16.8954 19.0706 18 19.0706C18.8932 19.0706 19.628 18.8876 20.1253 18.4898C20.58 18.126 21 17.4499 21 16.0706Z" fill="#293644"/>
</svg>
