<?xml version="1.0" ?>
<!-- Uploaded to: SVG Repo, www.svgrepo.com, Generator: SVG Repo Mixer Tools -->
<svg width="800px" height="800px" viewBox="0 0 512 512" xmlns="http://www.w3.org/2000/svg" xmlns:xlink="http://www.w3.org/1999/xlink">
<defs>
<clipPath id="clip-Chr_10">
<rect height="512" width="512"/>
</clipPath>
</defs>
<g clip-path="url(#clip-Chr_10)" data-name="Chr 10" id="Chr_10">
<rect fill="#ffffff" height="512" width="512"/>
<g data-name="Character 10" id="Character_10">
<g data-name="10.Back Hair 2" id="_10.Back_Hair_2">
<circle cx="67" cy="67" data-name="Ellipse 63" fill="#2f2419" id="Ellipse_63" r="67" transform="translate(81 154)"/>
<circle cx="67" cy="67" data-name="Ellipse 62" fill="#2f2419" id="Ellipse_62" r="67" transform="translate(299 155)"/>
</g>
<circle cx="127" cy="127" data-name="9. Back Hair 1" fill="#2f2419" id="_9._Back_Hair_1" r="127" transform="translate(129 24)"/>
<g data-name="8. Arm L" id="_8._Arm_L">
<circle cx="60" cy="60" data-name="Ellipse 59" fill="#e08ab8" id="Ellipse_59" r="60" transform="translate(80 341)"/>
<rect data-name="Rectangle 67" fill="#e08ab8" height="111" id="Rectangle_67" transform="translate(80 401)" width="68"/>
</g>
<g data-name="7. Arm R" id="_7._Arm_R">
<circle cx="60" cy="60" data-name="Ellipse 60" fill="#e08ab8" id="Ellipse_60" r="60" transform="translate(313 341)"/>
<rect data-name="Rectangle 68" fill="#e08ab8" height="111" id="Rectangle_68" transform="translate(363 401)" width="70"/>
</g>
<rect data-name="6. Main Body" fill="#892159" height="171" id="_6._Main_Body" transform="translate(140 341)" width="233"/>
<g data-name="5. Face Body" id="_5._Face_Body">
<rect data-name="Rectangle 65" fill="#f4ab90" height="147" id="Rectangle_65" rx="27" transform="translate(229 245)" width="54"/>
<rect data-name="Rectangle 63" fill="#f4ab90" height="76" id="Rectangle_63" rx="16.5" transform="translate(140 164)" width="33"/>
<rect data-name="Rectangle 62" fill="#f4ab90" height="76" id="Rectangle_62" rx="16.5" transform="translate(340 166)" width="33"/>
<rect data-name="Rectangle 61" fill="#ffc8b4" height="258" id="Rectangle_61" rx="100" transform="translate(156 61)" width="200"/>
<rect data-name="Rectangle 64" fill="#f4ab90" height="91" id="Rectangle_64" rx="16.5" transform="translate(240 151)" width="33"/>
<path d="M34,18.407c17.25,0,35-11.02,35-1.907S53.054,33.851,34,33.851,0,25.613,0,16.5,16.75,18.407,34,18.407Z" data-name="Path 3100" fill="#ffffff" id="Path_3100" transform="translate(222 249)"/>
</g>
<path d="M54,120a27,27,0,0,1-54,0Z" data-name="4. Front Clothes" fill="#e08ab8" id="_4._Front_Clothes" transform="translate(229 245)"/>
<g data-name="3. Eye L" id="_3._Eye_L">
<ellipse cx="18.861" cy="18.861" data-name="Ellipse 57" fill="#a5a1a0" id="Ellipse_57" rx="18.861" ry="18.861" transform="translate(185 151)"/>
<path d="M12.825,0c3.372,0,1.6,5.93,4.232,8.385,2.18,2.014,8.593.728,8.593,4.44A12.825,12.825,0,1,1,12.825,0Z" data-name="Path 3098" fill="#2f2419" id="Path_3098" transform="translate(191.036 157.035)"/>
</g>
<g data-name="2. Eye R" id="_2._Eye_R" transform="translate(-2)">
<path d="M18.861,0A18.861,18.861,0,1,1,0,18.861,18.861,18.861,0,0,1,18.861,0Z" data-name="Path 3106" fill="#a5a1a0" id="Path_3106" transform="translate(291.79 151)"/>
<path d="M12.825,0c3.372,0,1.6,5.93,4.232,8.385,2.18,2.014,8.593.728,8.593,4.44A12.825,12.825,0,1,1,12.825,0Z" data-name="Path 3099" fill="#2f2419" id="Path_3099" transform="translate(297.826 157.035)"/>
</g>
<path d="M127,0A127,127,0,0,1,254,127c0,70.14-174.9-28.8-174.9-28.8S0,197.14,0,127A127,127,0,0,1,127,0Z" data-name="1. Front Hair" fill="#2f2419" id="_1._Front_Hair" transform="translate(129)"/>
</g>
</g>
</svg>