<?xml version="1.0" encoding="utf-8"?><!-- Uploaded to: SVG Repo, www.svgrepo.com, Generator: SVG Repo Mixer Tools -->
<svg width="800px" height="800px" viewBox="0 0 366.34 366.34" id="Layer_1" data-name="Layer 1" xmlns="http://www.w3.org/2000/svg" xmlns:xlink="http://www.w3.org/1999/xlink"><defs><style>.cls-1{fill:url(#linear-gradient);}.cls-2{fill:#e18477;}.cls-3{fill:#a76962;}.cls-4{fill:none;stroke:#00214e;stroke-miterlimit:10;}.cls-5{fill:#f2d4cf;}.cls-6{fill:#ffffff;}.cls-7{fill:url(#linear-gradient-2);}.cls-8{fill:#00214e;}</style><linearGradient id="linear-gradient" x1="58.31" y1="166.08" x2="308.03" y2="166.08" gradientUnits="userSpaceOnUse"><stop offset="0" stop-color="#16243f"/><stop offset="1" stop-color="#6878b1"/></linearGradient><linearGradient id="linear-gradient-2" x1="129.58" y1="128.67" x2="239.18" y2="4.37" gradientUnits="userSpaceOnUse"><stop offset="0" stop-color="#16243f"/><stop offset="0.1" stop-color="#263454"/><stop offset="1" stop-color="#6878b1"/></linearGradient></defs><title>Artboards_Diversity_Avatars_by_Netguru</title><path class="cls-1" d="M218.69,52.11c-12-4-24.86-7.28-37.54-5.85a115,115,0,0,0-55.55,22c-9.93,7.41-22.55,19.36-24.63,32.32-1.86,11.6,12.26,20.23,9.59,30.76-2.27,8.92-20.48,6.91-23.85,16.74C83,159,103.22,172,99.39,181.76c-3.51,8.94-28.53-1.33-29.52,11.39-1.35,17.27,28.44,21.2,26.33,30.9-2.31,10.6-35.4,6.64-37.75,15.78-2.26,8.79,23.72,28.6,59.29,38.7,95.44,27.1,193-24.86,190.24-38.09-1.46-7.11-31.26-10.32-32.27-19.65-.8-7.43,18.89-13.67,17.55-20.33-1.39-6.93-23.66-4.79-25.53-12.19-2.1-8.33,24.18-18.3,22.34-28.46-1.48-8.14-19.3-7.2-21.54-16.27-2.67-10.78,13.78-19.26,11.09-28-2.88-9.34-24.54-5.64-29.44-17.54-2.86-6.94,5.19-12.62,4.79-20.33C254.59,70.48,246.83,61.61,218.69,52.11Z"/><path class="cls-2" d="M305.68,282.11a184.56,184.56,0,0,1-226.48-1l48.66-22.81a47.68,47.68,0,0,0,4.35-2.34l1.12-.7c.4-.25.79-.51,1.18-.78A46.54,46.54,0,0,0,149.18,238c4-7.55,5.32-15.89,5.38-24.39,0-5.72-.31-11.44-.37-17.17q-.06-4.75-.1-9.51l2,1,5.2,2.69,30.29,5.15,31.12,5.3.94,32,.47,15.87,11.47,4.67,9,3.64Z"/><path class="cls-3" d="M223.62,233.06a60.08,60.08,0,0,1-30.07-2.35C172,223.46,157.44,206,156.07,188l5.2,2.69,30.29,5.15,31.12,5.3Z"/><circle class="cls-2" cx="125.09" cy="154.93" r="17"/><circle class="cls-3" cx="131.09" cy="152.93" r="17"/><path class="cls-2" d="M248,128.14c12.46,43.15-11.79,93.25-30.26,95.31-44.64,5-76.34-17.79-88.8-60.94s4.1-85.81,37-95.3S235.55,85,248,128.14Z"/><path class="cls-4" d="M219.12,122.87A31.21,31.21,0,0,1,242,120.71"/><path class="cls-4" d="M164,126.57a36.68,36.68,0,0,1,31.23-1"/><path class="cls-5" d="M305.68,282.11a184.56,184.56,0,0,1-226.48-1l48.66-22.81a46.83,46.83,0,0,0,6.65-3.82c.64-.44,1.28-.9,1.89-1.38A46.35,46.35,0,0,0,149.18,238a44.69,44.69,0,0,0,4.64-14.48,28.66,28.66,0,0,0,2.22,1.94,95.14,95.14,0,0,0,19.82,11.26,99,99,0,0,0,10.46,3.69,93.52,93.52,0,0,0,33,3.49c1.54-.12,3.09-.27,4.63-.38l.15,5.08v.33l12.1,4.92Z"/><path class="cls-4" d="M177.66,153.09a10.34,10.34,0,0,0,11-10"/><path class="cls-4" d="M221.53,140.91a9,9,0,0,0,3.3,6.77,26.81,26.81,0,0,0,6.67,3.95"/><path class="cls-4" d="M170.61,183.17a25.12,25.12,0,0,1,4.57-5.65,24.63,24.63,0,0,1,13.21-6.25"/><line class="cls-4" x1="196.33" y1="103.69" x2="220" y2="103.69"/><line class="cls-4" x1="190.55" y1="111.51" x2="220" y2="111.51"/><path class="cls-6" d="M181.68,181.93a1.86,1.86,0,0,1,2.68-.5c2.08,1.46,5.88,4.56,11.28,5.63,7.36,1.47,13.74-1.48,15.27.42.86,1.07-.19,2.38-2.2,4.05a19.74,19.74,0,0,1-14.86,3.69c-7.08-1.33-12.4-9.53-12.4-12.44A1.68,1.68,0,0,1,181.68,181.93Z"/><path class="cls-7" d="M212,65.09c-3.95-3.74-10.92-4.88-16-5.62-22.39-3.26-43.14,5.34-59.71,20.13-8,7.11-15.1,15.48-19,25.44-4.16,10.77-6.3,33.38,10.22,32.47,7.24-.39,14.1-3.55,20.47-6.76,17.86-9,34.85-20.41,48.32-35.32a129.49,129.49,0,0,0,9.38-11.88c3.68-5.16,13.1-11.74,6.38-18.33A1.59,1.59,0,0,1,212,65.09Z"/><path class="cls-4" d="M212.26,135.32a58,58,0,0,0,2,11.48c1,3.31,2.52,5.37,4.52,8.22a17.4,17.4,0,0,1,1.79,3c2.65,5.93-.86,12.52-7.55,12.52H208.9"/><path class="cls-4" d="M194.27,162.87a3.4,3.4,0,0,0,2.12,6.38"/><path class="cls-8" d="M178.89,135.59c6.1-.07,6.28,9.25.18,9.42h-.27c-6.11.06-6.29-9.26-.19-9.43h.28Z"/><path class="cls-8" d="M229.12,134c5.67-.06,5.84,8.59.17,8.75H229c-5.66.06-5.83-8.59-.17-8.74h.25Z"/></svg>