<?xml version="1.0" encoding="iso-8859-1"?>
<!-- Uploaded to: SVG Repo, www.svgrepo.com, Generator: SVG Repo Mixer Tools -->
<svg height="800px" width="800px" version="1.1" id="Layer_1" xmlns="http://www.w3.org/2000/svg" xmlns:xlink="http://www.w3.org/1999/xlink" 
	 viewBox="0 0 360.216 360.216" xml:space="preserve">
<g id="XMLID_22_">
	<g id="XMLID_53_">
		<g id="XMLID_55_">
			<path id="XMLID_793_" style="fill:#F3D8B6;" d="M297.089,320.075v40.141H63.129v-44.68c0-10.171,3.36-23.971,9.45-35.871
				c6.51-12.73,16.15-23.29,28.15-30.5c0.75-0.45,1.51-0.89,2.28-1.33c1.16-0.64,2.35-1.26,3.56-1.83c0.8-0.38,1.6-0.75,2.42-1.12
				c0,0,0,0,0.01,0c2.05-0.89,4.15-1.69,6.31-2.41c1.72-0.57,3.47-1.07,5.25-1.51c0.01,0,0.01,0,0.02,0
				c1.48-0.37,2.98-0.69,4.51-0.98c4.59-0.85,9.37-1.29,14.31-1.29c0.01,0,0.01,0,0.02,0l40.69,24l40.69-24
				c6.59,0,12.89,0.79,18.84,2.27c7.16,1.77,13.8,4.56,19.85,8.2C282.709,263.115,297.089,289.644,297.089,320.075z"/>
		</g>
		<path id="XMLID_54_" style="fill:#EEC8A2;" d="M259.489,249.164c-6.05-3.64-12.69-6.43-19.85-8.2
			c-5.95-1.48-12.25-2.27-18.84-2.27l-40.69,24v97.521h116.98v-40.141C297.089,289.644,282.709,263.115,259.489,249.164z"/>
	</g>
	<g id="XMLID_46_">
		<path id="XMLID_795_" style="fill:#545465;" d="M298.427,139.049c-2.644,0-5.215,0.305-7.689,0.865
			c-0.126-21.457-3.225-41.385-8.978-59.084c-0.001-0.002-0.002-0.005-0.002-0.007c-0.337-1.036-0.682-2.064-1.037-3.085
			c-0.004-0.013-0.009-0.025-0.014-0.038c-0.352-1.012-0.713-2.017-1.083-3.014c-0.005-0.014-0.011-0.029-0.016-0.043
			c-0.369-0.993-0.746-1.979-1.133-2.956c-0.009-0.023-0.018-0.045-0.027-0.068c-0.384-0.969-0.775-1.93-1.176-2.884
			c-0.013-0.03-0.026-0.06-0.039-0.09c-0.397-0.944-0.802-1.88-1.216-2.808c-0.019-0.042-0.038-0.083-0.057-0.125
			c-0.41-0.917-0.827-1.826-1.253-2.727c-0.023-0.048-0.047-0.096-0.069-0.145c-0.423-0.893-0.854-1.779-1.293-2.657
			c-0.027-0.055-0.056-0.109-0.083-0.163c-0.436-0.868-0.878-1.729-1.329-2.582c-0.035-0.067-0.072-0.132-0.107-0.199
			c-0.446-0.839-0.898-1.672-1.358-2.496c-0.042-0.075-0.085-0.149-0.127-0.224c-0.456-0.812-0.918-1.619-1.388-2.416
			c-0.05-0.085-0.102-0.169-0.152-0.253c-0.466-0.786-0.938-1.566-1.417-2.337c-0.055-0.088-0.111-0.174-0.166-0.262
			c-0.478-0.764-0.961-1.521-1.453-2.27c-0.063-0.096-0.128-0.19-0.191-0.286c-0.486-0.735-0.976-1.465-1.475-2.186
			c-0.075-0.109-0.153-0.216-0.228-0.324c-0.491-0.705-0.987-1.405-1.491-2.095c-0.083-0.114-0.168-0.225-0.251-0.338
			c-0.5-0.68-1.004-1.356-1.516-2.021c-0.094-0.122-0.19-0.241-0.284-0.362c-0.506-0.652-1.015-1.3-1.533-1.939
			c-0.104-0.129-0.211-0.254-0.315-0.382c-0.512-0.626-1.028-1.249-1.552-1.862c-0.113-0.132-0.229-0.261-0.342-0.393
			c-0.519-0.602-1.042-1.2-1.572-1.789c-0.125-0.139-0.253-0.274-0.379-0.412c-0.523-0.575-1.049-1.146-1.582-1.707
			c-0.14-0.147-0.282-0.289-0.422-0.435c-0.525-0.546-1.053-1.09-1.588-1.623c-0.152-0.151-0.307-0.298-0.459-0.448
			c-0.529-0.521-1.06-1.039-1.598-1.547c-0.164-0.155-0.332-0.305-0.497-0.459c-0.532-0.495-1.066-0.989-1.607-1.472
			c-0.177-0.158-0.358-0.311-0.536-0.468c-0.535-0.471-1.071-0.94-1.615-1.398c-0.192-0.161-0.387-0.318-0.58-0.478
			c-0.536-0.445-1.072-0.889-1.616-1.322c-0.208-0.166-0.421-0.326-0.63-0.49c-0.535-0.419-1.07-0.837-1.613-1.244
			c-0.222-0.167-0.449-0.327-0.673-0.492c-0.536-0.396-1.073-0.791-1.617-1.175c-0.235-0.166-0.475-0.326-0.711-0.49
			c-0.538-0.373-1.076-0.746-1.621-1.108c-0.253-0.168-0.51-0.328-0.764-0.493c-0.536-0.348-1.071-0.698-1.614-1.035
			c-0.269-0.167-0.543-0.327-0.814-0.492c-0.535-0.325-1.069-0.652-1.61-0.967c-0.282-0.164-0.569-0.32-0.852-0.482
			c-0.536-0.305-1.071-0.611-1.614-0.906c-0.299-0.162-0.603-0.316-0.904-0.476c-0.534-0.283-1.067-0.568-1.607-0.841
			c-0.316-0.16-0.637-0.311-0.955-0.467c-0.531-0.261-1.06-0.524-1.597-0.776c-0.334-0.156-0.673-0.303-1.009-0.456
			c-0.529-0.24-1.056-0.483-1.589-0.714c-0.344-0.149-0.694-0.288-1.041-0.433c-0.532-0.223-1.062-0.448-1.599-0.662
			c-0.362-0.144-0.729-0.277-1.092-0.417c-0.528-0.202-1.055-0.408-1.588-0.602c-0.381-0.139-0.768-0.267-1.152-0.401
			c-0.523-0.182-1.043-0.369-1.57-0.542c-0.402-0.132-0.809-0.254-1.213-0.381c-0.516-0.163-1.03-0.33-1.55-0.484
			c-0.424-0.126-0.855-0.241-1.282-0.361c-0.507-0.143-1.012-0.291-1.523-0.427c-0.446-0.118-0.897-0.224-1.346-0.336
			c-0.499-0.125-0.996-0.255-1.499-0.372c-0.463-0.108-0.932-0.204-1.398-0.305c-0.496-0.108-0.99-0.222-1.489-0.323
			c-0.476-0.096-0.958-0.18-1.438-0.27c-0.496-0.093-0.989-0.192-1.488-0.278c-0.495-0.085-0.996-0.157-1.494-0.236
			c-0.49-0.077-0.977-0.16-1.471-0.23c-0.514-0.073-1.033-0.133-1.55-0.198c-0.484-0.062-0.966-0.13-1.453-0.185
			c-0.561-0.063-1.128-0.112-1.692-0.167c-0.45-0.043-0.896-0.094-1.348-0.132c-0.598-0.05-1.203-0.086-1.806-0.126
			c-0.426-0.029-0.849-0.065-1.277-0.089c-0.674-0.037-1.354-0.059-2.033-0.085c-0.362-0.014-0.721-0.035-1.084-0.045
			C182.218,0.015,181.167,0,180.109,0c-0.032,0-0.063,0.001-0.094,0.001l0,0C112.553,0.057,69.952,59.173,69.48,139.914
			c-2.475-0.56-5.046-0.865-7.689-0.865c-19.179,0-34.727,15.548-34.727,34.727c0,15.758,10.499,29.056,24.88,33.302
			c0.335,18.89,15.742,34.102,34.711,34.102c5.798,0,11.259-1.428,16.063-3.941c4.993,13.055,17.63,22.329,32.439,22.329
			c19.179,0,34.727-15.548,34.727-34.727c0-2.803-0.341-5.524-0.968-8.135c3.688,0.141,7.392,0.206,11.097,0.207v0.007
			c0.189,0,0.378-0.005,0.567-0.005c1.67-0.003,3.34-0.016,5.008-0.047c0.15-0.003,0.299-0.008,0.448-0.011
			c1.552-0.031,3.102-0.077,4.65-0.133c0.204-0.007,0.408-0.01,0.612-0.018c-0.627,2.611-0.968,5.332-0.968,8.135
			c0,19.179,15.548,34.727,34.727,34.727c14.81,0,27.447-9.274,32.439-22.329c4.805,2.512,10.266,3.941,16.063,3.941
			c18.97,0,34.376-15.212,34.711-34.102c14.382-4.246,24.88-17.544,24.88-33.302C333.154,154.597,317.606,139.049,298.427,139.049z"
			/>
		<path id="XMLID_798_" style="fill:#494857;" d="M298.427,139.049c-2.644,0-5.215,0.305-7.689,0.865
			c-0.126-21.457-3.225-41.385-8.978-59.084c-0.001-0.002-0.002-0.005-0.002-0.007c-0.337-1.036-0.682-2.064-1.037-3.085
			c-0.004-0.013-0.009-0.025-0.014-0.038c-0.352-1.012-0.713-2.017-1.083-3.014c-0.005-0.014-0.011-0.029-0.016-0.043
			c-0.369-0.993-0.746-1.979-1.133-2.956c-0.009-0.023-0.018-0.045-0.027-0.068c-0.384-0.969-0.775-1.93-1.176-2.884
			c-0.013-0.03-0.026-0.06-0.039-0.09c-0.397-0.944-0.802-1.88-1.216-2.808c-0.019-0.042-0.038-0.083-0.057-0.125
			c-0.41-0.917-0.827-1.826-1.253-2.727c-0.023-0.048-0.047-0.096-0.069-0.145c-0.423-0.893-0.854-1.779-1.293-2.657
			c-0.027-0.055-0.056-0.109-0.083-0.163c-0.436-0.868-0.878-1.729-1.329-2.582c-0.035-0.067-0.072-0.132-0.107-0.199
			c-0.446-0.839-0.898-1.672-1.358-2.496c-0.042-0.075-0.085-0.149-0.127-0.224c-0.456-0.812-0.918-1.619-1.388-2.416
			c-0.05-0.085-0.102-0.169-0.152-0.253c-0.466-0.786-0.938-1.566-1.417-2.337c-0.055-0.088-0.111-0.174-0.166-0.262
			c-0.478-0.764-0.961-1.521-1.453-2.27c-0.063-0.096-0.128-0.19-0.191-0.286c-0.486-0.735-0.976-1.465-1.475-2.186
			c-0.075-0.109-0.153-0.216-0.228-0.324c-0.491-0.705-0.987-1.405-1.491-2.095c-0.083-0.114-0.168-0.225-0.251-0.338
			c-0.5-0.68-1.004-1.356-1.516-2.021c-0.094-0.122-0.19-0.241-0.284-0.362c-0.506-0.652-1.015-1.3-1.533-1.939
			c-0.104-0.129-0.211-0.254-0.315-0.382c-0.512-0.626-1.028-1.249-1.552-1.862c-0.113-0.132-0.229-0.261-0.342-0.393
			c-0.519-0.602-1.042-1.2-1.572-1.789c-0.125-0.139-0.253-0.274-0.379-0.412c-0.523-0.575-1.049-1.146-1.582-1.707
			c-0.14-0.147-0.282-0.289-0.422-0.435c-0.525-0.546-1.053-1.09-1.588-1.623c-0.152-0.151-0.307-0.298-0.459-0.448
			c-0.529-0.521-1.06-1.039-1.598-1.547c-0.164-0.155-0.332-0.305-0.497-0.459c-0.532-0.495-1.066-0.989-1.607-1.472
			c-0.177-0.158-0.358-0.311-0.536-0.468c-0.535-0.471-1.071-0.94-1.615-1.398c-0.192-0.161-0.387-0.318-0.58-0.478
			c-0.536-0.445-1.072-0.889-1.616-1.322c-0.208-0.166-0.421-0.326-0.63-0.49c-0.535-0.419-1.07-0.837-1.613-1.244
			c-0.222-0.167-0.449-0.327-0.673-0.492c-0.536-0.396-1.073-0.791-1.617-1.175c-0.235-0.166-0.475-0.326-0.711-0.49
			c-0.538-0.373-1.076-0.746-1.621-1.108c-0.253-0.168-0.51-0.328-0.764-0.493c-0.536-0.348-1.071-0.698-1.614-1.035
			c-0.269-0.167-0.543-0.327-0.814-0.492c-0.535-0.325-1.069-0.652-1.61-0.967c-0.282-0.164-0.569-0.32-0.852-0.482
			c-0.536-0.305-1.071-0.611-1.614-0.906c-0.299-0.162-0.603-0.316-0.904-0.476c-0.534-0.283-1.067-0.568-1.607-0.841
			c-0.316-0.16-0.637-0.311-0.955-0.467c-0.531-0.261-1.06-0.524-1.597-0.776c-0.334-0.156-0.673-0.303-1.009-0.456
			c-0.529-0.24-1.056-0.483-1.589-0.714c-0.344-0.149-0.694-0.288-1.041-0.433c-0.532-0.223-1.062-0.448-1.599-0.662
			c-0.362-0.144-0.729-0.277-1.092-0.417c-0.528-0.202-1.055-0.408-1.588-0.602c-0.381-0.139-0.768-0.267-1.152-0.401
			c-0.523-0.182-1.043-0.369-1.57-0.542c-0.402-0.132-0.809-0.254-1.213-0.381c-0.516-0.163-1.03-0.33-1.55-0.484
			c-0.424-0.126-0.855-0.241-1.282-0.361c-0.507-0.143-1.012-0.291-1.523-0.427c-0.446-0.118-0.897-0.224-1.346-0.336
			c-0.499-0.125-0.996-0.255-1.499-0.372c-0.463-0.108-0.932-0.204-1.398-0.305c-0.496-0.108-0.99-0.222-1.489-0.323
			c-0.476-0.096-0.958-0.18-1.438-0.27c-0.496-0.093-0.989-0.192-1.488-0.278c-0.495-0.085-0.996-0.157-1.494-0.236
			c-0.49-0.077-0.977-0.16-1.471-0.23c-0.514-0.073-1.033-0.133-1.55-0.198c-0.484-0.062-0.966-0.13-1.453-0.185
			c-0.561-0.063-1.128-0.112-1.692-0.167c-0.45-0.043-0.896-0.094-1.348-0.132c-0.598-0.05-1.203-0.086-1.806-0.126
			c-0.426-0.029-0.849-0.065-1.277-0.089c-0.674-0.037-1.354-0.059-2.033-0.085c-0.362-0.014-0.721-0.035-1.084-0.045
			C182.218,0.015,181.167,0,180.109,0v216.92c0.158-0.001,0.315-0.004,0.473-0.004c1.67-0.003,3.34-0.016,5.008-0.047
			c0.15-0.003,0.299-0.008,0.448-0.011c1.552-0.031,3.102-0.077,4.65-0.133c0.204-0.007,0.408-0.01,0.612-0.018
			c-0.627,2.611-0.968,5.332-0.968,8.135c0,19.179,15.548,34.727,34.727,34.727c14.81,0,27.447-9.274,32.439-22.329
			c4.805,2.512,10.266,3.941,16.063,3.941c18.97,0,34.376-15.212,34.711-34.102c14.382-4.246,24.88-17.544,24.88-33.302
			C333.154,154.597,317.606,139.049,298.427,139.049z"/>
	</g>
	<g id="XMLID_42_">
		<g id="XMLID_44_">
			<path id="XMLID_800_" style="fill:#F3D8B6;" d="M208.438,182.83h-26.884h-1.256h-0.379h-1.256h-26.884
				c0,74.552-36.43,67.808-36.43,67.808c0,47.368,51.162,62.392,63.313,66.806v1.537c0,0,0.533-0.11,1.446-0.359
				c0.912,0.249,1.446,0.359,1.446,0.359v-1.537c12.151-4.414,63.313-19.439,63.313-66.806
				C244.868,250.638,208.438,257.382,208.438,182.83z"/>
		</g>
		<path id="XMLID_43_" style="fill:#EEC8A2;" d="M208.438,182.83h-26.884h-1.256h-0.189v135.792
			c0.912,0.249,1.446,0.359,1.446,0.359v-1.537c12.151-4.415,63.313-19.439,63.313-66.807
			C244.868,250.638,208.438,257.382,208.438,182.83z"/>
	</g>
	<g id="XMLID_39_">
		<path id="XMLID_799_" style="fill:#F3DBC4;" d="M115.958,128.925c0.699,22.952,4.296,43.986,8.495,51.74
			c9.042,16.694,29.221,38.957,55.657,38.957c26.431,0,46.607-22.262,55.652-38.957c4.2-7.754,7.797-28.787,8.497-51.74H115.958z"/>
		<path id="XMLID_801_" style="fill:#EDCEAE;" d="M180.109,128.925v90.696c0.001,0,0.001,0,0.002,0
			c26.431,0,46.607-22.262,55.652-38.957c4.2-7.754,7.797-28.787,8.497-51.74h-64.151V128.925z"/>
	</g>
	<g id="XMLID_23_">
		<g id="XMLID_35_">
			<polygon id="XMLID_38_" style="fill:#CC2F3F;" points="225.583,295.215 134.634,295.215 100.109,321.549 100.109,360.215 
				260.109,360.215 260.109,321.549 			"/>
			<g id="XMLID_36_">
				<path id="XMLID_37_" style="fill:#CC2F3F;" d="M133.849,326.045l-30.02,6.74l-31.49-53.12c6.51-12.73,16.15-23.29,28.15-30.5
					c0.75-0.45,1.51-0.89,2.28-1.33c1.16-0.64,2.35-1.26,3.56-1.83c0.8-0.38,1.6-0.75,2.42-1.12c0,0,0,0,0.01,0
					c2.04-0.9,4.15-1.7,6.31-2.41c1.72-0.57,3.47-1.07,5.25-1.51c0.01,0,0.01,0,0.02,0c1.48-0.38,2.98-0.7,4.51-0.98
					c4.59-0.85,9.37-1.29,14.31-1.29L133.849,326.045z"/>
			</g>
		</g>
		<g id="XMLID_32_">
			<polygon id="XMLID_34_" style="fill:#B32A38;" points="225.583,295.215 180.109,295.215 180.109,360.215 260.109,360.215 
				260.109,321.549 			"/>
			<path id="XMLID_33_" style="fill:#B32A38;" d="M226.368,326.045l30.02,6.74l31.49-53.12c-6.51-12.73-16.15-23.29-28.15-30.5
				c-0.75-0.45-1.51-0.89-2.28-1.33c-1.16-0.64-2.35-1.26-3.56-1.83c-0.8-0.38-1.6-0.75-2.42-1.12c0,0,0,0-0.01,0
				c-2.04-0.9-4.15-1.7-6.31-2.41c-1.72-0.57-3.47-1.07-5.25-1.51c-0.01,0-0.01,0-0.02,0c-1.48-0.38-2.98-0.7-4.51-0.98
				c-4.59-0.85-9.37-1.29-14.31-1.29L226.368,326.045z"/>
		</g>
	</g>
</g>
</svg>