<?xml version="1.0" encoding="iso-8859-1"?>
<!-- Uploaded to: SVG Repo, www.svgrepo.com, Generator: SVG Repo Mixer Tools -->
<svg height="800px" width="800px" version="1.1" id="Layer_1" xmlns="http://www.w3.org/2000/svg" xmlns:xlink="http://www.w3.org/1999/xlink" 
	 viewBox="0 0 354.878 354.878" xml:space="preserve">
<g id="XMLID_30_">
	<g id="XMLID_50_">
		<path id="XMLID_243_" style="fill:#545465;" d="M276.925,182.072c26.39-24.059,11.154-18.864,11.154-40.802
			C288.08,59.796,245.333,0,177.439,0S66.8,59.796,66.8,141.269c0,21.938-15.236,16.743,11.154,40.802
			C114.713,215.585,240.165,215.585,276.925,182.072z"/>
		<path id="XMLID_307_" style="fill:#474759;" d="M288.08,141.269C288.08,59.796,245.333,0,177.439,0
			c-0.056,0-0.111,0.002-0.167,0.002v207.203c40.609,0.023,81.248-8.354,99.653-25.134
			C303.315,158.012,288.08,163.207,288.08,141.269z"/>
	</g>
	<g id="XMLID_47_">
		<path id="XMLID_308_" style="fill:#F3D8B6;" d="M220.628,265.681c0,0-14.458-18.417-14.458-81.376h-26.23h-5.002h-26.23
			c0,62.959-14.458,81.376-14.458,81.376c0,47.368,28.832,48.824,40.688,53.239v1.537c0,0,0.922-0.188,2.501-0.68
			c1.579,0.492,2.501,0.68,2.501,0.68v-1.537C191.796,314.506,220.628,313.049,220.628,265.681z"/>
		<path id="XMLID_309_" style="fill:#EEC8A2;" d="M206.17,184.306h-26.23l-2.667-0.024v135.472c1.579,0.492,2.667,0.704,2.667,0.704
			v-1.537c11.856-4.414,40.688-5.871,40.688-53.239C220.628,265.681,206.17,247.265,206.17,184.306z"/>
	</g>
	<g id="XMLID_40_">
		<path id="XMLID_44_" style="fill:#367992;" d="M294.421,314.197v40.681H60.458v-40.681c0-30.431,14.377-56.963,37.605-70.913
			c6.043-3.641,12.69-6.43,19.844-8.196c5.953-1.488,12.254-2.272,18.842-2.272l40.691,24.002l40.691-24.002
			c6.588,0,12.889,0.784,18.842,2.272c7.154,1.766,13.802,4.554,19.844,8.196C280.044,257.234,294.421,283.766,294.421,314.197z"/>
		<path id="XMLID_41_" style="fill:#2F697E;" d="M256.817,243.283c-6.042-3.641-12.69-6.43-19.844-8.196
			c-5.953-1.488-12.254-2.272-18.842-2.272l-40.691,24.002l-0.167-0.098v98.159h117.148v-40.681
			C294.421,283.766,280.044,257.234,256.817,243.283z"/>
	</g>
	<g id="XMLID_37_">
		<path id="XMLID_39_" style="fill:#FFFFFF;" d="M256.817,354.877V243.283c-6.043-3.641-12.69-6.43-19.844-8.196v71.339H117.907
			v-71.339c-7.154,1.766-13.802,4.554-19.844,8.196v111.594H256.817z"/>
		<path id="XMLID_38_" style="fill:#DEDDE0;" d="M236.971,235.088v71.338h-59.699v48.451h79.544V243.283
			C250.773,239.642,244.126,236.854,236.971,235.088z"/>
	</g>
	<g id="XMLID_34_">
		<path id="XMLID_36_" style="fill:#FFFFFF;" d="M223.325,234.116c-3.59-2.949-8.721-4.162-14.417-3.806l-31.468,26.507
			l-31.468-26.507c-5.697-0.356-10.827,0.857-14.417,3.806c-8.592,7.058-5.109,31.957,7.779,42.543
			c12.507,10.273,29.273-3.09,38.106-9.371c8.833,6.281,25.6,19.644,38.106,9.371C228.434,266.073,231.917,241.174,223.325,234.116z
			"/>
		<path id="XMLID_35_" style="fill:#DEDDE0;" d="M223.325,234.116c-3.59-2.949-8.721-4.162-14.417-3.806l-31.635,26.366
			c0,0-0.054,10.77,0,10.731c8.833,6.281,25.766,19.525,38.273,9.252C228.434,266.073,231.917,241.174,223.325,234.116z"/>
	</g>
	<g id="XMLID_31_">
		<path id="XMLID_333_" style="fill:#F3DBC4;" d="M240.148,123.7c-0.006,0-0.012-0.001-0.018-0.001
			c-12.853-0.857-70.471-6.364-88.262-36.896c-1.621-2.782-3.112-5.444-4.497-8.014c-6.835,14.838-21.696,32.756-33.954,40.89
			c0.936,21.58,4.38,40.912,8.368,48.274c9.042,16.694,29.221,38.956,55.657,38.956c26.431,0,46.607-22.262,55.652-38.956
			c3.733-6.893,6.99-24.283,8.159-44.184C240.93,123.75,240.574,123.728,240.148,123.7z"/>
		<path id="XMLID_337_" style="fill:#EDCEAE;" d="M240.148,123.7c-0.006,0-0.012-0.001-0.018-0.001
			c-8.881-0.592-39.137-3.407-62.857-15.163v98.369c0.057,0,0.112,0.004,0.168,0.004c26.431,0,46.607-22.262,55.652-38.956
			c3.733-6.893,6.99-24.283,8.159-44.184C240.93,123.75,240.574,123.728,240.148,123.7z"/>
	</g>
</g>
</svg>