<?xml version="1.0" ?>
<!-- Uploaded to: SVG Repo, www.svgrepo.com, Generator: SVG Repo Mixer Tools -->
<svg width="800px" height="800px" viewBox="0 0 512 512" xmlns="http://www.w3.org/2000/svg" xmlns:xlink="http://www.w3.org/1999/xlink">
<defs>
<clipPath id="clip-Chr_6">
<rect height="512" width="512"/>
</clipPath>
</defs>
<g clip-path="url(#clip-Chr_6)" data-name="Chr 6" id="Chr_6">
<rect fill="#ffffff" height="512" width="512"/>
<g data-name="Character 6" id="Character_6">
<path d="M6.224-.16c-18.993,0-12.235,24.372-24.7,42.807-11.565,17.1-23.087,16.225-25.23,31.614S-27.949,94.78-27.051,104.2c.732,7.686-18.8,14.192-16.657,28.589s22.352,22.211,25.23,29c5.079,11.986-3.61,23.074,0,32.408S.9,220.224,22.469,222.076c25.182,2.162,74.333-.723,79.029-11.673,15.24-35.536-56.363-133.059-63.972-177.978C32.715,4.02,11.585-.16,6.224-.16Z" data-name="8. Back Hair 3" fill="#5d1c16" id="_8._Back_Hair_3" transform="translate(137 100)"/>
<path d="M53.51-.16c18.993,0,12.235,24.372,24.7,42.807,11.565,17.1,23.087,16.225,25.23,31.614S87.683,94.78,86.785,104.2c-.732,7.686,18.8,14.192,16.657,28.589s-22.352,22.211-25.23,29c-5.079,11.986,3.61,23.074,0,32.408s-19.377,26.024-40.948,27.876c-25.182,2.162-74.333-.723-79.029-11.673C-57,174.867,14.6,77.344,22.208,32.425,27.019,4.02,48.149-.16,53.51-.16Z" data-name="8. Back Hair 2" fill="#5d1c16" id="_8._Back_Hair_2" transform="translate(314 100)"/>
<circle cx="127" cy="127" data-name="8. Back Hair 1" fill="#5d1c16" id="_8._Back_Hair_1" r="127" transform="translate(129 24)"/>
<g data-name="7. Arm L" id="_7._Arm_L">
<circle cx="60" cy="60" data-name="Ellipse 59" fill="#323219" id="Ellipse_59" r="60" transform="translate(80 341)"/>
<rect data-name="Rectangle 67" fill="#323219" height="111" id="Rectangle_67" transform="translate(80 401)" width="68"/>
</g>
<g data-name="6. Arm R" id="_6._Arm_R">
<circle cx="60" cy="60" data-name="Ellipse 60" fill="#323219" id="Ellipse_60" r="60" transform="translate(313 341)"/>
<rect data-name="Rectangle 68" fill="#323219" height="111" id="Rectangle_68" transform="translate(363 401)" width="70"/>
</g>
<g data-name="5. Main Body" id="_5._Main_Body">
<rect data-name="Rectangle 66" fill="#323219" height="171" id="Rectangle_66" transform="translate(140 341)" width="233"/>
<path d="M0,0H21s-.668,47.7,6.669,68.127S116,110,116,110H0Z" data-name="Path 3109" fill="#a3a3a2" id="Path_3109" transform="translate(140 341)"/>
<rect data-name="Rectangle 72" fill="#a3a3a2" height="62" id="Rectangle_72" transform="translate(140 450)" width="232"/>
<path d="M116,0H95s.668,47.7-6.669,68.127S0,110,0,110H116Z" data-name="Path 3115" fill="#a3a3a2" id="Path_3115" transform="translate(256 341)"/>
</g>
<g data-name="4. Face Body" id="_4._Face_Body">
<rect data-name="Rectangle 65" fill="#f4ab90" height="147" id="Rectangle_65" rx="27" transform="translate(229 245)" width="54"/>
<rect data-name="Rectangle 63" fill="#f4ab90" height="76" id="Rectangle_63" rx="16.5" transform="translate(140 164)" width="33"/>
<rect data-name="Rectangle 62" fill="#f4ab90" height="76" id="Rectangle_62" rx="16.5" transform="translate(340 166)" width="33"/>
<rect data-name="Rectangle 61" fill="#ffc8b4" height="258" id="Rectangle_61" rx="100" transform="translate(156 61)" width="200"/>
<rect data-name="Rectangle 64" fill="#f4ab90" height="91" id="Rectangle_64" rx="16.5" transform="translate(240 151)" width="33"/>
</g>
<g data-name="3. Eye L" id="_3._Eye_L">
<ellipse cx="18.861" cy="18.861" data-name="Ellipse 57" fill="#ac7d14" id="Ellipse_57" rx="18.861" ry="18.861" transform="translate(185 151)"/>
<path d="M12.825,0c3.372,0,1.6,5.93,4.232,8.385,2.18,2.014,8.593.728,8.593,4.44A12.825,12.825,0,1,1,12.825,0Z" data-name="Path 3098" fill="#342607" id="Path_3098" transform="translate(191.036 157.035)"/>
</g>
<g data-name="2. Eye R" id="_2._Eye_R" transform="translate(-2)">
<path d="M18.861,0A18.861,18.861,0,1,1,0,18.861,18.861,18.861,0,0,1,18.861,0Z" data-name="Path 3107" fill="#ac7d14" id="Path_3107" transform="translate(291.79 151)"/>
<path d="M12.825,0c3.372,0,1.6,5.93,4.232,8.385,2.18,2.014,8.593.728,8.593,4.44A12.825,12.825,0,1,1,12.825,0Z" data-name="Path 3099" fill="#342607" id="Path_3099" transform="translate(297.826 157.035)"/>
</g>
<path d="M131.953,0C102.845,0,73.815,9.125,51.412,25.7c-31.2,23.087-32.371,57.11-53.161,83.022s-32.033,14.834-30,20.626c.718,2.044,39.262,18.383,83.159,18.425,53.424.052,105.914-19.2,113.133-25.753,23.064-20.948,25.014-32.5,25.014-32.5s-.757,27.035,8.233,44.8,30.806,37.47,46.1,36.226S258.5,144.312,258.5,133.421c0-22.075-4.975-46.927-14.611-65.231-1.579-3-3.272-5.929-5.227-9.024A126.223,126.223,0,0,0,131.953,0Z" data-name="1. Front Hair" fill="#5d1c16" id="_1._Front_Hair" transform="translate(125)"/>
<path d="M33.5,19.924C59.806,19.6,69,7.387,69,16.5S53.054,39.464,34,39.464,0,25.613,0,16.5,7.189,20.245,33.5,19.924Z" data-name="Path 3100" fill="#ffffff" id="Path_3100" transform="matrix(0.951, -0.309, 0.309, 0.951, 241.114, 257.861)"/>
</g>
</g>
</svg>