<?xml version="1.0" ?>
<!-- Uploaded to: SVG Repo, www.svgrepo.com, Generator: SVG Repo Mixer Tools -->
<svg width="800px" height="800px" viewBox="0 0 512 512" xmlns="http://www.w3.org/2000/svg" xmlns:xlink="http://www.w3.org/1999/xlink">
<defs>
<clipPath id="clip-Chr_2">
<rect height="512" width="512"/>
</clipPath>
</defs>
<g clip-path="url(#clip-Chr_2)" data-name="Chr 2" id="Chr_2">
<rect fill="#ffffff" height="512" width="512"/>
<g data-name="Character 2" id="Character_2">
<rect data-name="7. Hair Back 2" fill="#463929" height="287" id="_7._Hair_Back_2" transform="translate(129 122)" width="254"/>
<circle cx="127" cy="127" data-name="6. Hair Back 1" fill="#463929" id="_6._Hair_Back_1" r="127" transform="translate(129 24)"/>
<g data-name="5. Main Body" id="_5._Main_Body">
<g data-name="7. Arm L" id="_7._Arm_L">
<circle cx="60" cy="60" data-name="Ellipse 59" fill="#887f11" id="Ellipse_59" r="60" transform="translate(80 341)"/>
<rect data-name="Rectangle 67" fill="#887f11" height="111" id="Rectangle_67" transform="translate(80 401)" width="68"/>
</g>
<g data-name="6. Arm R" id="_6._Arm_R">
<circle cx="60" cy="60" data-name="Ellipse 60" fill="#887f11" id="Ellipse_60" r="60" transform="translate(313 341)"/>
<rect data-name="Rectangle 68" fill="#887f11" height="111" id="Rectangle_68" transform="translate(363 401)" width="70"/>
</g>
<rect data-name="Rectangle 66" fill="#887f11" height="171" id="Rectangle_66" transform="translate(140 341)" width="233"/>
</g>
<g data-name="4. Face Body" id="_4._Face_Body">
<rect data-name="Rectangle 65" fill="#f4ab90" height="147" id="Rectangle_65" rx="27" transform="translate(229 245)" width="54"/>
<rect data-name="Rectangle 63" fill="#f4ab90" height="76" id="Rectangle_63" rx="16.5" transform="translate(140 164)" width="33"/>
<rect data-name="Rectangle 62" fill="#f4ab90" height="76" id="Rectangle_62" rx="16.5" transform="translate(340 166)" width="33"/>
<rect data-name="Rectangle 61" fill="#ffc8b4" height="258" id="Rectangle_61" rx="100" transform="translate(156 61)" width="200"/>
<rect data-name="Rectangle 64" fill="#f4ab90" height="91" id="Rectangle_64" rx="16.5" transform="translate(240 151)" width="33"/>
<path d="M34,9.867c17.25,0,35-2.48,35,6.633S53.054,39.464,34,39.464,0,25.613,0,16.5,16.75,9.867,34,9.867Z" data-name="Path 3100" fill="#ffffff" id="Path_3100" transform="translate(222 249)"/>
</g>
<g data-name="3. Eye L" id="_3._Eye_L">
<ellipse cx="18.861" cy="18.861" data-name="Ellipse 57" fill="#b2745d" id="Ellipse_57" rx="18.861" ry="18.861" transform="translate(185 151)"/>
<path d="M12.825,0c3.372,0,1.6,5.93,4.232,8.385,2.18,2.014,8.593.728,8.593,4.44A12.825,12.825,0,1,1,12.825,0Z" data-name="Path 3098" fill="#553326" id="Path_3098" transform="translate(191.036 157.035)"/>
</g>
<g data-name="2. Eye R" id="_2._Eye_R" transform="translate(-2)">
<path d="M18.861,0A18.861,18.861,0,1,1,0,18.861,18.861,18.861,0,0,1,18.861,0Z" data-name="Path 3106" fill="#b2745d" id="Path_3106" transform="translate(291.79 151)"/>
<path d="M12.825,0c3.372,0,1.6,5.93,4.232,8.385,2.18,2.014,8.593.728,8.593,4.44A12.825,12.825,0,1,1,12.825,0Z" data-name="Path 3099" fill="#553326" id="Path_3099" transform="translate(297.826 157.035)"/>
</g>
<path d="M127,0A127,127,0,0,1,254,127c0,70.14-56.86,5.128-127,5.128S0,197.14,0,127A127,127,0,0,1,127,0Z" data-name="1. Hair 1" fill="#463929" id="_1._Hair_1" transform="translate(129)"/>
</g>
</g>
</svg>