<?xml version="1.0" encoding="iso-8859-1"?>
<!-- Uploaded to: SVG Repo, www.svgrepo.com, Generator: SVG Repo Mixer Tools -->
<svg version="1.1" id="Layer_1" xmlns="http://www.w3.org/2000/svg" xmlns:xlink="http://www.w3.org/1999/xlink" 
	 viewBox="0 0 484.328 484.328" xml:space="preserve">
<ellipse style="fill:#FFA412;" cx="242.168" cy="13.024" rx="11.664" ry="11.328"/>
<g>
	<rect x="162.088" y="268.552" style="fill:#F9BDA0;" width="161.992" height="172"/>
	<polygon style="fill:#F9BDA0;" points="303.408,288.64 182.736,288.64 190.792,188.664 295.368,188.664 	"/>
</g>
<polygon style="fill:#E28F71;" points="303.424,288.64 255.616,386.648 182.752,188.664 295.376,188.664 "/>
<path style="fill:#FCCCB9;" d="M322.816,119.184c0-70.032-34.872-98.376-79.84-98.656v-0.032c-0.264,0-0.528,0.016-0.8,0.016
	c-0.28,0-0.544-0.016-0.816-0.016v0.032c-44.968,0.28-79.84,28.624-79.84,98.656s34.872,133.344,79.84,134.856v0.144
	c0.264,0,0.528-0.064,0.816-0.08c0.264,0.016,0.528,0.08,0.8,0.08v-0.144C287.944,252.528,322.816,189.216,322.816,119.184z"/>
<path style="fill:#F9BDA0;" d="M241.36,254.04v0.144c0.264,0,0.528-0.064,0.816-0.08c0.264,0.016,0.528,0.08,0.8,0.08v-0.144
	c44.968-1.512,79.84-64.832,79.84-134.856s-34.872-98.376-79.84-98.656v-0.032c-0.264,0-0.528,0.016-0.8,0.016
	c-0.28,0-0.544-0.016-0.816-0.016v0.032"/>
<g>
	<path style="fill:#00233F;" d="M161.16,106.264c-4.328-1.888-3.472-14.736,0.344-23.424c3.832-8.704,10.456-22.2,14.768-20.296
		c4.344,1.904,7.936,20.784,0.936,27.2"/>
	<path style="fill:#00233F;" d="M323.144,106.072c4.344-1.904,3.528-14.736-0.28-23.424c-3.808-8.688-10.408-22.168-14.752-20.264
		c-4.328,1.92-7.952,20.816-0.952,27.2"/>
	<path style="fill:#00233F;" d="M197.976,201.992c-0.2-0.216-0.312-0.376-0.312-0.376S197.736,201.84,197.976,201.992z"/>
	<path style="fill:#00233F;" d="M288.192,201.992c0.2-0.216,0.312-0.376,0.312-0.376S288.424,201.84,288.192,201.992z"/>
</g>
<g>
	<circle style="fill:#65C7EA;" cx="158.504" cy="302.32" r="5"/>
	<circle style="fill:#65C7EA;" cx="169.504" cy="332.632" r="5"/>
	<circle style="fill:#65C7EA;" cx="180.504" cy="362.952" r="5"/>
	<circle style="fill:#65C7EA;" cx="191.504" cy="393.312" r="5"/>
	<circle style="fill:#65C7EA;" cx="202.488" cy="423.64" r="5"/>
	<circle style="fill:#65C7EA;" cx="213.504" cy="453.992" r="5"/>
</g>
<g>
	<circle style="fill:#1982BC;" cx="325.848" cy="302.32" r="5"/>
	<circle style="fill:#1982BC;" cx="314.808" cy="332.632" r="5"/>
	<circle style="fill:#1982BC;" cx="303.832" cy="362.952" r="5"/>
	<circle style="fill:#1982BC;" cx="292.808" cy="393.312" r="5"/>
	<circle style="fill:#1982BC;" cx="281.832" cy="423.64" r="5"/>
	<circle style="fill:#1982BC;" cx="270.832" cy="453.992" r="5"/>
</g>
<path style="fill:#CC2323;" d="M461.272,312.712L339.72,270.664l2.568-6.888l-15.896-6.656
	c-6.344,28.72-41.584,50.736-84.216,50.736c-42.648,0-77.872-22.016-84.208-50.736l-15.92,6.656l2.576,6.888l-121.56,42.048
	L0,482.608h30.736h156.736H235h14.328h49.736h154.528h30.736L461.272,312.712z"/>
<path style="fill:#B70909;" d="M0,482.608h30.736h156.736H235h14.328h49.736h154.528h30.736l-23.056-169.896L339.72,270.664
	l2.568-6.888l-15.896-6.656c-6.344,28.72-41.584,50.736-84.216,50.736c-42.648,0-77.872-22.016-84.208-50.736l-15.92,6.656
	l2.576,6.888"/>
<path style="fill:#8E0707;" d="M235,482.608h14.328h49.736h154.528h30.736l-23.056-169.896L339.72,270.664l2.568-6.888
	l-15.896-6.656c-6.344,28.72-41.584,50.736-84.216,50.736"/>
<path style="fill:#CC2323;" d="M242.176,65.448c29.528,0,56.408,2.544,76.888,6.688c-7.76-30.872-39.216-61.704-76.896-61.704
	s-69.136,30.832-76.896,61.704C185.752,67.992,212.632,65.448,242.176,65.448z"/>
<path style="fill:#8E0707;" d="M242.192,10.432h-0.016c-23.856,0-43.904,28.168-50.104,57.64c15.168-1.672,32.12-2.624,50.104-2.624
	c17.968,0,34.92,0.952,50.088,2.624C286.064,38.624,266.016,10.448,242.192,10.432z"/>
<path style="fill:#F2D52A;" d="M242.176,48.448c-26.096,0-50.08,1.984-69.44,5.312c-3.344,5.952-5.904,12.16-7.472,18.376
	c20.488-4.144,47.36,1.312,76.904,1.312c29.528,0,56.408-5.456,76.888-1.312c-1.56-6.216-4.128-12.424-7.472-18.376
	C292.24,50.432,268.256,48.448,242.176,48.448z"/>
<path style="fill:#EFA42B;" d="M242.176,73.448c29.528,0,56.408-5.456,76.888-1.312c-1.56-6.216-4.128-12.424-7.472-18.376
	c-19.36-3.328-43.344-5.312-69.424-5.312"/>
<rect x="216.944" y="308.632" style="fill:#B70909;" width="104" height="174"/>
<circle style="fill:#F2D52A;" cx="300.408" cy="344.528" r="8.496"/>
<path style="fill:#EFA42B;" d="M294.432,338.512c3.32-3.312,8.696-3.312,12.024,0c3.32,3.328,3.32,8.704,0,12.032"/>
<circle style="fill:#F2D52A;" cx="300.408" cy="391.776" r="8.496"/>
<path style="fill:#EFA42B;" d="M294.432,385.76c3.32-3.312,8.696-3.312,12.024,0c3.32,3.328,3.32,8.704,0,12.032"/>
<circle style="fill:#F2D52A;" cx="300.408" cy="439.032" r="8.496"/>
<path style="fill:#EFA42B;" d="M294.432,433.008c3.32-3.312,8.696-3.312,12.024,0c3.32,3.328,3.32,8.704,0,12.032"/>
<g>
	<path style="fill:#FFA412;" d="M115.68,336.984c0,0-18.088,34.376,12.664,44.608c30.752,10.248,35.568,24.424,31.952,35.72
		c-3.616,11.328-18.536,19.904-29.408,3.168c-10.832-16.72,5.904-25.328,17.64-10.392c0,0-5.872-14.016-18.08-9.048
		s-2.72,33.472,19.448,30.752c22.152-2.72,21.256-44.784-6.336-61.064c-27.576-16.248-24.864-36.16-16.28-42.048
		c8.608-5.856,22.616,16.28,7.232,19.456c0,0,23.296-3.36,9.512-19.456c-15.16-17.624-20.352-8.144-23.064-2.704
		C118.256,331.4,115.68,336.984,115.68,336.984z"/>
	<circle style="fill:#FFA412;" cx="164.144" cy="437.912" r="1.576"/>
	<circle style="fill:#FFA412;" cx="172.088" cy="449.872" r="3.624"/>
	<path style="fill:#FFA412;" d="M181.112,457.56c0,0.512-0.416,0.888-0.904,0.888c-0.512,0-0.904-0.376-0.904-0.888
		c0-0.488,0.392-0.904,0.904-0.904C180.696,456.648,181.112,457.072,181.112,457.56z"/>
	<path style="fill:#FFA412;" d="M189.688,463.904c0,0.488-0.408,0.888-0.888,0.888c-0.512,0-0.92-0.408-0.92-0.888
		c0-0.496,0.408-0.92,0.92-0.92C189.288,462.984,189.688,463.4,189.688,463.904z"/>
	<path style="fill:#FFA412;" d="M147.192,416.416c0,1.248-1.008,2.248-2.248,2.248c-1.264,0-2.28-1-2.28-2.248
		c0-1.264,1.016-2.264,2.28-2.264C146.184,414.152,147.192,415.152,147.192,416.416z"/>
	<circle style="fill:#FFA412;" cx="132.496" cy="341.592" r="3.4"/>
	<path style="fill:#FFA412;" d="M140.408,356.28c0,0,7.528-0.904,11.144-12.064c0,0,4.224,12.064-2.712,12.952
		C141.904,358.088,140.408,356.28,140.408,356.28z"/>
	<path style="fill:#FFA412;" d="M145.224,362.624l9.048-1.512c0,0-3.016,6.312-4.832,4.816
		C147.64,364.4,145.224,362.624,145.224,362.624z"/>
	<path style="fill:#FFA412;" d="M196.336,352.056c0,0.752-0.624,1.36-1.368,1.36h-23.504c-0.776,0-1.368-0.608-1.368-1.36l0,0
		c0-0.752,0.592-1.36,1.368-1.36h23.504C195.704,350.696,196.336,351.312,196.336,352.056L196.336,352.056z"/>
	<path style="fill:#FFA412;" d="M197.52,364.712c0,0.768-0.6,1.36-1.344,1.36h-23.528c-0.744,0-1.344-0.592-1.344-1.36l0,0
		c0-0.736,0.6-1.36,1.344-1.36h23.528C196.92,363.352,197.52,363.984,197.52,364.712L197.52,364.712z"/>
	<path style="fill:#FFA412;" d="M198.72,377.384c0,0.752-0.6,1.344-1.344,1.344h-23.528c-0.736,0-1.344-0.592-1.344-1.344l0,0
		c0-0.752,0.608-1.376,1.344-1.376h23.528C198.12,376.008,198.72,376.64,198.72,377.384L198.72,377.384z"/>
	<path style="fill:#FFA412;" d="M199.944,390.04c0,0.752-0.608,1.36-1.376,1.36h-23.504c-0.744,0-1.368-0.608-1.368-1.36l0,0
		c0-0.752,0.624-1.36,1.368-1.36h23.504C199.336,388.68,199.944,389.296,199.944,390.04L199.944,390.04z"/>
</g>
</svg>