<?xml version="1.0" ?>
<!-- Uploaded to: SVG Repo, www.svgrepo.com, Generator: SVG Repo Mixer Tools -->
<svg width="800px" height="800px" viewBox="0 0 512 512" xmlns="http://www.w3.org/2000/svg" xmlns:xlink="http://www.w3.org/1999/xlink">
<defs>
<clipPath id="clip-Chr_7">
<rect height="512" width="512"/>
</clipPath>
</defs>
<g clip-path="url(#clip-Chr_7)" data-name="Chr 7" id="Chr_7">
<rect fill="#ffffff" height="512" width="512"/>
<g data-name="Character 7" id="Character_7">
<circle cx="127" cy="127" data-name="8. Back Hair 1" fill="#4d4d4d" id="_8._Back_Hair_1" r="127" transform="translate(129 24)"/>
<g data-name="7. Arm L" id="_7._Arm_L">
<circle cx="60" cy="60" data-name="Ellipse 59" fill="#5d1c16" id="Ellipse_59" r="60" transform="translate(80 341)"/>
<rect data-name="Rectangle 67" fill="#5d1c16" height="111" id="Rectangle_67" transform="translate(80 401)" width="68"/>
</g>
<g data-name="6. Arm R" id="_6._Arm_R">
<circle cx="60" cy="60" data-name="Ellipse 60" fill="#5d1c16" id="Ellipse_60" r="60" transform="translate(313 341)"/>
<rect data-name="Rectangle 68" fill="#5d1c16" height="111" id="Rectangle_68" transform="translate(363 401)" width="70"/>
</g>
<g data-name="5. Main Body" id="_5._Main_Body">
<rect data-name="5. Main Body" fill="#5d1c16" height="171" id="_5._Main_Body-2" transform="translate(140 341)" width="233"/>
<rect data-name="Rectangle 73" fill="#ac7d14" height="17" id="Rectangle_73" transform="translate(140 461)" width="233"/>
<rect data-name="Rectangle 77" fill="#ac7d14" height="7" id="Rectangle_77" transform="translate(140 487)" width="233"/>
<path d="M107.685,0H26.671L13.488,50.082,45.184,87.6Z" data-name="Path 3112" fill="#ac7d14" id="Path_3112" transform="translate(250 341)"/>
<path d="M13.488,0H94.5l13.184,50.082L75.989,87.6Z" data-name="Path 3111" fill="#ac7d14" id="Path_3111" transform="translate(140 341)"/>
</g>
<g data-name="4. Face Body" id="_4._Face_Body">
<rect data-name="Rectangle 65" fill="#f4ab90" height="147" id="Rectangle_65" rx="27" transform="translate(229 245)" width="54"/>
<rect data-name="Rectangle 63" fill="#f4ab90" height="76" id="Rectangle_63" rx="16.5" transform="translate(140 164)" width="33"/>
<rect data-name="Rectangle 62" fill="#f4ab90" height="76" id="Rectangle_62" rx="16.5" transform="translate(340 166)" width="33"/>
<rect data-name="Rectangle 61" fill="#ffc8b4" height="258" id="Rectangle_61" rx="100" transform="translate(156 61)" width="200"/>
<rect data-name="Rectangle 64" fill="#f4ab90" height="91" id="Rectangle_64" rx="16.5" transform="translate(240 151)" width="33"/>
<path d="M37,9.559c20.109-.045,40.092-7.387,40.092,0S57.031,32.889,37,32.889-3.483,16.946-3.483,9.559,16.891,9.6,37,9.559Z" data-name="Path 3100" fill="#ffffff" id="Path_3100" transform="translate(219 246.441)"/>
</g>
<g data-name="3. Eye L" id="_3._Eye_L">
<ellipse cx="18.861" cy="18.861" data-name="Ellipse 57" fill="#7591aa" id="Ellipse_57" rx="18.861" ry="18.861" transform="translate(185 151)"/>
<path d="M12.825,0c3.372,0,1.6,5.93,4.232,8.385,2.18,2.014,8.593.728,8.593,4.44A12.825,12.825,0,1,1,12.825,0Z" data-name="Path 3098" fill="#1b3141" id="Path_3098" transform="translate(191.036 157.035)"/>
</g>
<g data-name="2. Eye R" id="_2._Eye_R" transform="translate(-2)">
<path d="M18.861,0A18.861,18.861,0,1,1,0,18.861,18.861,18.861,0,0,1,18.861,0Z" data-name="Path 3107" fill="#7591aa" id="Path_3107" transform="translate(291.79 151)"/>
<path d="M12.825,0c3.372,0,1.6,5.93,4.232,8.385,2.18,2.014,8.593.728,8.593,4.44A12.825,12.825,0,1,1,12.825,0Z" data-name="Path 3099" fill="#1b3141" id="Path_3099" transform="translate(297.826 157.035)"/>
</g>
<path d="M131.953,0C61.812,0,0,45.793,0,117.232c0,5.727.278,14.558,2.313,20.35,1.6,4.551,22.008,43.253,62.639,5.746s95.269-7.179,108.37-19.077C196.387,103.3,194.312,87.3,194.312,87.3s-5.51,29.265,3.48,47.031,31.777,14.339,33.667,29.659c19.54-4.684,27.494-23.744,27.494-34.634a130.812,130.812,0,0,0-15.065-61.161c-1.579-3-3.272-5.929-5.227-9.024A126.223,126.223,0,0,0,131.953,0Z" data-name="1. Front Hair" fill="#4d4d4d" id="_1._Front_Hair" transform="translate(125)"/>
</g>
</g>
</svg>