<?xml version="1.0" ?>
<!-- Uploaded to: SVG Repo, www.svgrepo.com, Generator: SVG Repo Mixer Tools -->
<svg width="800px" height="800px" viewBox="0 0 48 48" xmlns="http://www.w3.org/2000/svg">
<defs>
<style>.cls-1{fill:#fc663d;}.cls-2{fill:#f7cc94;}.cls-3{fill:#f4b392;}.cls-4{fill:#3f1400;}.cls-5{fill:none;stroke:#3f1400;stroke-linecap:round;stroke-linejoin:round;stroke-width:0.5px;}</style>
</defs>
<title/>
<g id="hair">
<path class="cls-1" d="M44.39,44.5H3.61c0-7,3.16-12.74,10.19-12.74H34.2c7,0,10.19,5.7,10.19,12.74Z"/>
<path class="cls-2" d="M27.82,21.56V33a3.82,3.82,0,0,1-7.64,0V21.56Z"/>
<path class="cls-3" d="M31.57,17.74a10.57,10.57,0,0,1-3.75,7.54v2.55a6,6,0,0,1-7.64,0V25.28a10.57,10.57,0,0,1-3.75-7.54c.46-5,3.67-8.92,7.57-8.92S31.11,12.72,31.57,17.74Z"/>
<path class="cls-2" d="M31.65,16.46a10.6,10.6,0,0,1-.08,1.28,10.57,10.57,0,0,1-3.75,7.54,6,6,0,0,1-7.64,0,10.57,10.57,0,0,1-3.75-7.54,10.6,10.6,0,0,1-.08-1.28c0-5.63,3.42-10.19,7.65-10.19S31.65,10.83,31.65,16.46Z"/>
<path class="cls-2" d="M34.2,16.46A2.55,2.55,0,0,1,31.65,19c-1.41,0,0-1.14,0-2.55s-1.41-2.55,0-2.55A2.55,2.55,0,0,1,34.2,16.46Z"/>
<path class="cls-2" d="M13.8,16.46A2.55,2.55,0,0,0,16.35,19c1.41,0,0-1.14,0-2.55s1.41-2.55,0-2.55A2.55,2.55,0,0,0,13.8,16.46Z"/>
<circle class="cls-4" cx="20.94" cy="14.17" r="0.51"/>
<circle class="cls-4" cx="27.06" cy="14.17" r="0.51"/>
<path class="cls-5" d="M19.16,12.64s1.73-2,3.57-1"/>
<path class="cls-5" d="M28.84,12.64s-1.73-2-3.57-1"/>
<path class="cls-5" d="M23.49,14.68s-2,5.1-1,5.1h1"/>
<path class="cls-5" d="M23.49,21.81s3.06,0,4.08-1"/>
<path class="cls-4" d="M17,14.44s3-5,3-6c0,0,1,2,7,0s6-5,6-5-5,2-8,1-7,0-6,2c0,0-2-1-2,0S15.05,13.45,17,14.44Z"/>
<path class="cls-4" d="M30,6.48s3,7,1,8c0,0-3-6-3-7S30,6.48,30,6.48Z"/>
</g>
</svg>